<svg xmlns="http://www.w3.org/2000/svg" xmlns:xlink="http://www.w3.org/1999/xlink" version="1.1" x="0px" y="0px" viewBox="0 0 50.1 96" enable-background="new 0 0 50.1 96" fill="#26A163" xml:space="preserve">
    <g>
        <path d="M34.3,57C47.1,45.6,32.8,37.5,20.1,31C2.6,21.9,2.9,7.9,17.6,5.4c10.9-1.9,5.2,7.3,8.6,14.5c1.6,3.4,15.5,1.5,14.9-0.5   c-0.5-1.7-6.6-1.3-8.6-3.8c-1.3-1.6-0.3-5.2-1-7.7C28.2-4.1,7.3-1.4,2,9.4c-6.4,12.9,3.6,20.4,13.9,26.3   C26.7,41.8,31.9,46.4,34.3,57z"></path>
        <path d="M21.6,46.6c-4.6,2.6-9.1,7.1-12.7,15.7C0.4,82.9,13.1,95.6,26.1,96L26,96l0.1-0.4c0.7-3.3,2.8-14.8,2.9-26.6   C29,58.1,27.3,51.5,24,48.5C23.3,47.8,22.5,47.2,21.6,46.6z"></path>
        <path d="M43.8,49.7c1,1.3-2.6,10.5-8.5,13.7c-0.2,13.6-3.8,28-5.2,32.5c8.8-0.7,18-7.2,19.7-21.7C51.1,63,48.5,54.9,43.8,49.7z"></path>
    </g>
</svg>